<svg width="309" height="174" viewBox="0 0 309 174" fill="none" xmlns="http://www.w3.org/2000/svg">
<path d="M191.86 117.52C191.595 117.598 191.443 117.875 191.52 118.14L192.783 122.46C192.86 122.725 193.138 122.877 193.403 122.799C193.668 122.722 193.82 122.444 193.742 122.179L192.62 118.34L196.46 117.217C196.725 117.14 196.877 116.862 196.799 116.597C196.722 116.332 196.444 116.18 196.179 116.258L191.86 117.52ZM234.24 140.561L192.24 117.561L191.76 118.439L233.76 141.439L234.24 140.561Z" fill="#2FD32B"/>
<rect x="13.25" y="53.25" width="71.5" height="17.5" rx="8.75" fill="#9F7AEA" stroke="black" stroke-width="0.5"/>
<path d="M48.18 65.04L45.97 65.02L45.91 64.94V58.23L45.97 58.16L48.05 58.13C48.7767 58.13 49.32 58.2867 49.68 58.6C50.0467 58.9133 50.23 59.36 50.23 59.94C50.23 60.26 50.1433 60.5467 49.97 60.8C49.7967 61.0467 49.57 61.2267 49.29 61.34C49.4567 61.3933 49.6167 61.4767 49.77 61.59C49.93 61.7033 50.0667 61.8367 50.18 61.99C50.2933 62.1433 50.3833 62.3133 50.45 62.5C50.5233 62.6867 50.56 62.8833 50.56 63.09C50.56 63.6767 50.3633 64.15 49.97 64.51C49.5767 64.8633 48.98 65.04 48.18 65.04ZM46.96 64.24L48.17 64.23C48.4167 64.23 48.6233 64.1967 48.79 64.13C48.9567 64.0633 49.09 63.9767 49.19 63.87C49.29 63.7567 49.36 63.63 49.4 63.49C49.4467 63.3433 49.47 63.1867 49.47 63.02C49.47 62.8733 49.4433 62.73 49.39 62.59C49.3433 62.4433 49.2633 62.3133 49.15 62.2C49.0433 62.0867 48.9033 61.9967 48.73 61.93C48.5567 61.8567 48.35 61.82 48.11 61.82H46.96V64.24ZM46.96 58.93V61H48.01C48.2233 61 48.4033 60.9733 48.55 60.92C48.6967 60.8667 48.8133 60.7933 48.9 60.7C48.9933 60.6067 49.06 60.4967 49.1 60.37C49.14 60.2433 49.16 60.11 49.16 59.97C49.16 59.2833 48.7833 58.94 48.03 58.94C47.7767 58.94 47.56 58.94 47.38 58.94C47.2067 58.94 47.0667 58.9367 46.96 58.93Z" fill="#E8EDF3"/>
<rect x="114.25" y="100.25" width="71.5" height="17.5" rx="8.75" fill="#9F7AEA" stroke="black" stroke-width="0.5"/>
<path d="M148.95 110.62L148.94 111.13C149.14 111.11 149.36 111.1 149.6 111.1H152.19C152.19 111.28 152.18 111.417 152.16 111.51C152.1 111.843 151.873 112.01 151.48 112.01H148.51C148.323 112.01 148.173 111.953 148.06 111.84C147.953 111.72 147.9 111.557 147.9 111.35V105.23L147.97 105.17H151.99C152.01 105.277 152.02 105.42 152.02 105.6C152.02 105.773 151.993 105.93 151.94 106.07H148.94L148.95 106.72V108.12L149.57 108.11H151.45C151.483 108.23 151.5 108.38 151.5 108.56C151.5 108.733 151.483 108.877 151.45 108.99H149.57C149.31 108.99 149.103 108.987 148.95 108.98V110.62Z" fill="#E8EDF3"/>
<rect x="114.25" y="147.25" width="71.5" height="17.5" rx="8.75" fill="#9F7AEA" stroke="black" stroke-width="0.5"/>
<path d="M149.5 155.41L151.04 155.4C151.547 155.4 151.8 155.633 151.8 156.1V158.7C151.053 158.987 150.23 159.13 149.33 159.13C148.83 159.13 148.39 159.037 148.01 158.85C147.637 158.663 147.34 158.407 147.12 158.08C146.7 157.433 146.49 156.617 146.49 155.63C146.49 155.017 146.573 154.473 146.74 154C146.907 153.527 147.133 153.153 147.42 152.88C148 152.32 148.677 152.04 149.45 152.04C150.357 152.04 151.133 152.283 151.78 152.77C151.727 153.103 151.557 153.37 151.27 153.57C150.723 153.157 150.117 152.95 149.45 152.95C148.897 152.95 148.45 153.167 148.11 153.6C147.77 154.033 147.6 154.713 147.6 155.64C147.6 157.38 148.237 158.25 149.51 158.25C149.983 158.25 150.407 158.193 150.78 158.08V156.96C150.78 156.667 150.787 156.453 150.8 156.32H149.92C149.587 156.32 149.42 156.163 149.42 155.85C149.42 155.697 149.447 155.55 149.5 155.41Z" fill="#E8EDF3"/>
<rect x="215.25" y="147.25" width="71.5" height="17.5" rx="8.75" fill="#9F7AEA" stroke="black" stroke-width="0.5"/>
<path d="M251.78 155.03L251.77 154.29V152.17C251.91 152.143 252.087 152.13 252.3 152.13C252.52 152.13 252.7 152.143 252.84 152.17V159C252.687 159.027 252.507 159.04 252.3 159.04C252.1 159.04 251.923 159.027 251.77 159V156.66L251.78 155.92L251.22 155.93H249.53L248.96 155.92L248.97 156.66V159C248.83 159.027 248.65 159.04 248.43 159.04C248.217 159.04 248.043 159.027 247.91 159V152.17C248.043 152.143 248.217 152.13 248.43 152.13C248.65 152.13 248.83 152.143 248.97 152.17V154.29L248.96 155.03L249.53 155.02H251.22L251.78 155.03Z" fill="#E8EDF3"/>
<rect x="114.25" y="53.25" width="71.5" height="17.5" rx="8.75" fill="#9F7AEA" stroke="black" stroke-width="0.5"/>
<path d="M150.6 60.53C150.6 60.3167 150.573 60.1133 150.52 59.92C150.473 59.72 150.393 59.5467 150.28 59.4C150.167 59.2467 150.02 59.1267 149.84 59.04C149.66 58.9467 149.44 58.9 149.18 58.9C148.667 58.9 148.277 59.13 148.01 59.59C147.743 60.05 147.61 60.71 147.61 61.57C147.61 62.4233 147.753 63.0767 148.04 63.53C148.327 63.9767 148.75 64.2 149.31 64.2C149.87 64.2 150.453 63.9467 151.06 63.44C151.333 63.62 151.51 63.85 151.59 64.13C151.443 64.2767 151.273 64.41 151.08 64.53C150.893 64.65 150.693 64.7567 150.48 64.85C150.273 64.9367 150.057 65.0033 149.83 65.05C149.61 65.1033 149.393 65.13 149.18 65.13C148.667 65.13 148.237 65.0333 147.89 64.84C147.543 64.64 147.27 64.38 147.07 64.06C146.877 63.7333 146.73 63.36 146.63 62.94C146.537 62.5133 146.49 62.0733 146.49 61.62C146.49 61.02 146.56 60.4967 146.7 60.05C146.84 59.6033 147.03 59.2333 147.27 58.94C147.517 58.64 147.803 58.4167 148.13 58.27C148.457 58.1167 148.803 58.04 149.17 58.04C149.55 58.04 149.89 58.0933 150.19 58.2C150.497 58.3067 150.757 58.45 150.97 58.63C151.19 58.81 151.357 59.0167 151.47 59.25C151.583 59.4833 151.64 59.73 151.64 59.99C151.64 60.39 151.44 60.59 151.04 60.59C150.913 60.59 150.767 60.57 150.6 60.53Z" fill="#E8EDF3"/>
<rect x="215.25" y="53.25" width="71.5" height="17.5" rx="8.75" fill="#9F7AEA" stroke="black" stroke-width="0.5"/>
<path d="M251.91 64.54C251.81 64.62 251.69 64.6933 251.55 64.76C251.417 64.82 251.27 64.8733 251.11 64.92C250.95 64.96 250.787 64.99 250.62 65.01C250.46 65.0367 250.307 65.05 250.16 65.05C250.007 65.05 249.75 65.0467 249.39 65.04C249.03 65.0333 248.557 65.0233 247.97 65.01L247.91 64.94V58.23L247.97 58.16C248.55 58.14 249.283 58.13 250.17 58.13C250.71 58.13 251.16 58.22 251.52 58.4C251.88 58.58 252.167 58.8267 252.38 59.14C252.6 59.4533 252.753 59.8233 252.84 60.25C252.927 60.67 252.97 61.12 252.97 61.6C252.97 62.2667 252.897 62.84 252.75 63.32C252.61 63.7933 252.33 64.2 251.91 64.54ZM250.17 58.99H248.97V64.19H250.17C251.303 64.19 251.87 63.3233 251.87 61.59C251.87 60.6833 251.727 60.0233 251.44 59.61C251.16 59.1967 250.737 58.99 250.17 58.99Z" fill="#E8EDF3"/>
<rect x="215.25" y="100.25" width="71.5" height="17.5" rx="8.75" fill="#9F7AEA" stroke="black" stroke-width="0.5"/>
<path d="M249.96 106.07L249.97 107.25V108.13C250.07 108.123 250.21 108.12 250.39 108.12H252.4C252.433 108.233 252.45 108.383 252.45 108.57C252.45 108.75 252.433 108.897 252.4 109.01H249.97V112C249.817 112.027 249.637 112.04 249.43 112.04C249.223 112.04 249.05 112.027 248.91 112V105.23L248.97 105.17H252.93C252.97 105.29 252.99 105.43 252.99 105.59C252.99 105.917 252.79 106.08 252.39 106.08H250.92C250.467 106.08 250.147 106.077 249.96 106.07Z" fill="#E8EDF3"/>
<rect x="12.75" y="10.75" width="72.5" height="18.5" rx="9.25" fill="#9F7AEA" stroke="black" stroke-width="0.5"/>
<path d="M49.29 21.34L48.69 21.35H47.32L46.74 21.34L46.21 23.01C46.0967 23.0367 45.9467 23.05 45.76 23.05C45.5733 23.05 45.3967 23.0267 45.23 22.98L45.2 22.93L47.46 16.17C47.6 16.1433 47.8033 16.13 48.07 16.13C48.3367 16.13 48.5367 16.1433 48.67 16.17L50.91 22.93C50.77 23.0233 50.59 23.07 50.37 23.07C50.15 23.07 49.9933 23.03 49.9 22.95C49.8067 22.87 49.7267 22.7233 49.66 22.51L49.29 21.34ZM47.01 20.48L47.52 20.47H48.52C48.7933 20.4767 48.96 20.48 49.02 20.48L48.56 19.03C48.3267 18.2833 48.15 17.68 48.03 17.22H47.98C47.9 17.5867 47.77 18.07 47.59 18.67L47.01 20.48Z" fill="#E8EDF3"/>
<path d="M57.6464 49.3536C57.8417 49.5488 58.1583 49.5488 58.3536 49.3536L61.5355 46.1716C61.7308 45.9763 61.7308 45.6597 61.5355 45.4645C61.3403 45.2692 61.0237 45.2692 60.8284 45.4645L58 48.2929L55.1716 45.4645C54.9763 45.2692 54.6597 45.2692 54.4645 45.4645C54.2692 45.6597 54.2692 45.9763 54.4645 46.1716L57.6464 49.3536ZM57.5 32V49H58.5V32H57.5Z" fill="#F49F20"/>
<path d="M157.646 94.3536C157.842 94.5488 158.158 94.5488 158.354 94.3536L161.536 91.1716C161.731 90.9763 161.731 90.6597 161.536 90.4645C161.34 90.2692 161.024 90.2692 160.828 90.4645L158 93.2929L155.172 90.4645C154.976 90.2692 154.66 90.2692 154.464 90.4645C154.269 90.6597 154.269 90.9763 154.464 91.1716L157.646 94.3536ZM157.5 77V94H158.5V77H157.5Z" fill="#F49F20"/>
<path d="M157.646 141.354C157.842 141.549 158.158 141.549 158.354 141.354L161.536 138.172C161.731 137.976 161.731 137.66 161.536 137.464C161.34 137.269 161.024 137.269 160.828 137.464L158 140.293L155.172 137.464C154.976 137.269 154.66 137.269 154.464 137.464C154.269 137.66 154.269 137.976 154.464 138.172L157.646 141.354ZM157.5 124V141H158.5V124H157.5Z" fill="#F49F20"/>
<path d="M258.646 94.3536C258.842 94.5488 259.158 94.5488 259.354 94.3536L262.536 91.1716C262.731 90.9763 262.731 90.6597 262.536 90.4645C262.34 90.2692 262.024 90.2692 261.828 90.4645L259 93.2929L256.172 90.4645C255.976 90.2692 255.66 90.2692 255.464 90.4645C255.269 90.6597 255.269 90.9763 255.464 91.1716L258.646 94.3536ZM258.5 77V94H259.5V77H258.5Z" fill="#F49F20"/>
<path d="M108.354 62.3536C108.549 62.1583 108.549 61.8417 108.354 61.6464L105.172 58.4645C104.976 58.2692 104.66 58.2692 104.464 58.4645C104.269 58.6597 104.269 58.9763 104.464 59.1716L107.293 62L104.464 64.8284C104.269 65.0237 104.269 65.3403 104.464 65.5355C104.66 65.7308 104.976 65.7308 105.172 65.5355L108.354 62.3536ZM91 62.5H108V61.5H91V62.5Z" fill="#20B5E4"/>
<path d="M209.354 62.3536C209.549 62.1583 209.549 61.8417 209.354 61.6464L206.172 58.4645C205.976 58.2692 205.66 58.2692 205.464 58.4645C205.269 58.6597 205.269 58.9763 205.464 59.1716L208.293 62L205.464 64.8284C205.269 65.0237 205.269 65.3403 205.464 65.5355C205.66 65.7308 205.976 65.7308 206.172 65.5355L209.354 62.3536ZM192 62.5H209V61.5H192V62.5Z" fill="#20B5E4"/>
<path d="M209.354 156.354C209.549 156.158 209.549 155.842 209.354 155.646L206.172 152.464C205.976 152.269 205.66 152.269 205.464 152.464C205.269 152.66 205.269 152.976 205.464 153.172L208.293 156L205.464 158.828C205.269 159.024 205.269 159.34 205.464 159.536C205.66 159.731 205.976 159.731 206.172 159.536L209.354 156.354ZM192 156.5H209V155.5H192V156.5Z" fill="#20B5E4"/>
<path d="M40.3536 31.6464C40.1583 31.4512 39.8417 31.4512 39.6464 31.6464L36.4645 34.8284C36.2692 35.0237 36.2692 35.3403 36.4645 35.5355C36.6597 35.7308 36.9763 35.7308 37.1716 35.5355L40 32.7071L42.8284 35.5355C43.0237 35.7308 43.3403 35.7308 43.5355 35.5355C43.7308 35.3403 43.7308 35.0237 43.5355 34.8284L40.3536 31.6464ZM40.5 49V32H39.5V49H40.5Z" fill="#2FD32B"/>
<path d="M139.354 76.6464C139.158 76.4512 138.842 76.4512 138.646 76.6464L135.464 79.8284C135.269 80.0237 135.269 80.3403 135.464 80.5355C135.66 80.7308 135.976 80.7308 136.172 80.5355L139 77.7071L141.828 80.5355C142.024 80.7308 142.34 80.7308 142.536 80.5355C142.731 80.3403 142.731 80.0237 142.536 79.8284L139.354 76.6464ZM139.5 94V77H138.5V94H139.5Z" fill="#2FD32B"/>
<path d="M139.354 123.646C139.158 123.451 138.842 123.451 138.646 123.646L135.464 126.828C135.269 127.024 135.269 127.34 135.464 127.536C135.66 127.731 135.976 127.731 136.172 127.536L139 124.707L141.828 127.536C142.024 127.731 142.34 127.731 142.536 127.536C142.731 127.34 142.731 127.024 142.536 126.828L139.354 123.646ZM139.5 141V124H138.5V141H139.5Z" fill="#2FD32B"/>
<path d="M240.354 76.6464C240.158 76.4512 239.842 76.4512 239.646 76.6464L236.464 79.8284C236.269 80.0237 236.269 80.3403 236.464 80.5355C236.66 80.7308 236.976 80.7308 237.172 80.5355L240 77.7071L242.828 80.5355C243.024 80.7308 243.34 80.7308 243.536 80.5355C243.731 80.3403 243.731 80.0237 243.536 79.8284L240.354 76.6464ZM240.5 94V77H239.5V94H240.5Z" fill="#2FD32B"/>
<path d="M281.179 11.28C281.563 11.28 281.903 11.172 282.199 10.956C282.495 10.74 282.711 10.46 282.847 10.116H283.819C283.635 10.708 283.299 11.184 282.811 11.544C282.299 11.912 281.691 12.096 280.987 12.096C280.107 12.096 279.391 11.796 278.839 11.196C278.303 10.612 278.035 9.88 278.035 9C278.035 8.12 278.303 7.388 278.839 6.804C279.391 6.204 280.107 5.904 280.987 5.904C281.691 5.904 282.299 6.088 282.811 6.456C283.299 6.816 283.635 7.292 283.819 7.884H282.847C282.711 7.54 282.495 7.26 282.199 7.044C281.903 6.828 281.563 6.72 281.179 6.72C280.795 6.72 280.467 6.78 280.195 6.9C279.931 7.02 279.707 7.184 279.523 7.392C279.131 7.824 278.935 8.36 278.935 9C278.935 9.64 279.131 10.176 279.523 10.608C279.923 11.056 280.475 11.28 281.179 11.28ZM285.835 3.6V6.936C286.051 6.648 286.315 6.404 286.627 6.204C286.939 6.004 287.295 5.904 287.695 5.904C288.095 5.904 288.439 5.96 288.727 6.072C289.015 6.184 289.267 6.352 289.483 6.576C289.979 7.064 290.227 7.708 290.227 8.508V12H289.327V8.532C289.327 7.98 289.171 7.54 288.859 7.212C288.547 6.884 288.143 6.72 287.647 6.72C287.143 6.72 286.715 6.888 286.363 7.224C286.011 7.568 285.835 8.008 285.835 8.544V12H284.935V3.6H285.835ZM291.732 6H292.632V12H291.732V6ZM292.668 3.816V4.992H291.696V3.816H292.668ZM295.093 12H294.193V3.6H295.093V12ZM301.334 11.04C300.854 11.744 300.138 12.096 299.186 12.096C298.322 12.096 297.618 11.796 297.074 11.196C296.546 10.604 296.282 9.872 296.282 9C296.282 8.128 296.546 7.396 297.074 6.804C297.618 6.204 298.342 5.904 299.246 5.904C300.15 5.904 300.846 6.26 301.334 6.972V3.6H302.234V12H301.334V11.04ZM299.306 11.28C299.954 11.28 300.466 11.056 300.842 10.608C301.202 10.184 301.382 9.648 301.382 9C301.382 8.352 301.202 7.816 300.842 7.392C300.466 6.944 299.954 6.72 299.306 6.72C298.666 6.72 298.146 6.944 297.746 7.392C297.37 7.816 297.182 8.352 297.182 9C297.182 9.648 297.37 10.184 297.746 10.608C298.146 11.056 298.666 11.28 299.306 11.28Z" fill="#F49F20"/>
<path d="M274.092 32.608C274.012 31.984 273.508 31.672 272.58 31.672C271.66 31.672 271.2 31.96 271.2 32.536C271.2 32.776 271.296 32.96 271.488 33.088C271.688 33.208 271.936 33.308 272.232 33.388C272.528 33.468 272.848 33.544 273.192 33.616C273.544 33.68 273.868 33.776 274.164 33.904C274.46 34.024 274.704 34.192 274.896 34.408C275.096 34.624 275.196 34.92 275.196 35.296C275.196 35.88 274.976 36.328 274.536 36.64C274.096 36.944 273.5 37.096 272.748 37.096C271.948 37.096 271.312 36.896 270.84 36.496C270.408 36.144 270.176 35.684 270.144 35.116H271.08C271.136 35.668 271.448 36.04 272.016 36.232C272.224 36.296 272.428 36.328 272.628 36.328C272.836 36.328 273.028 36.316 273.204 36.292C273.38 36.268 273.552 36.224 273.72 36.16C274.104 36.008 274.296 35.748 274.296 35.38C274.296 35.132 274.196 34.944 273.996 34.816C273.804 34.68 273.56 34.572 273.264 34.492C272.968 34.404 272.644 34.328 272.292 34.264C271.948 34.192 271.628 34.096 271.332 33.976C271.036 33.856 270.788 33.692 270.588 33.484C270.396 33.276 270.3 32.988 270.3 32.62C270.3 32.076 270.496 31.656 270.888 31.36C271.288 31.056 271.876 30.904 272.652 30.904C273.388 30.904 273.968 31.08 274.392 31.432C274.744 31.728 274.948 32.12 275.004 32.608H274.092ZM276.353 31H277.253V37H276.353V31ZM277.289 28.816V29.992H276.317V28.816H277.289ZM279.714 31.972C280.202 31.26 280.918 30.904 281.862 30.904C282.726 30.904 283.426 31.204 283.962 31.804C284.498 32.396 284.766 33.128 284.766 34C284.766 34.872 284.498 35.604 283.962 36.196C283.426 36.796 282.702 37.096 281.79 37.096C280.886 37.096 280.194 36.744 279.714 36.04V37H278.814V28.6H279.714V31.972ZM281.742 36.28C282.382 36.28 282.902 36.056 283.302 35.608C283.678 35.184 283.866 34.648 283.866 34C283.866 33.352 283.678 32.816 283.302 32.392C282.902 31.944 282.382 31.72 281.742 31.72C281.094 31.72 280.582 31.944 280.206 32.392C279.846 32.816 279.666 33.352 279.666 34C279.666 34.648 279.846 35.184 280.206 35.608C280.582 36.056 281.094 36.28 281.742 36.28ZM286.839 37H285.939V28.6H286.839V37ZM288.4 31H289.3V37H288.4V31ZM289.336 28.816V29.992H288.364V28.816H289.336ZM291.761 31V31.936C291.977 31.648 292.241 31.404 292.553 31.204C292.865 31.004 293.221 30.904 293.621 30.904C294.021 30.904 294.365 30.96 294.653 31.072C294.941 31.184 295.193 31.352 295.409 31.576C295.905 32.064 296.153 32.708 296.153 33.508V37H295.253V33.532C295.253 32.98 295.097 32.54 294.785 32.212C294.473 31.884 294.069 31.72 293.573 31.72C293.069 31.72 292.641 31.888 292.289 32.224C291.937 32.568 291.761 33.008 291.761 33.544V37H290.861V31H291.761ZM302.338 31.96V31H303.238V36.82C303.238 37.684 302.99 38.34 302.494 38.788C302.006 39.244 301.346 39.472 300.514 39.472C299.682 39.472 299.03 39.312 298.558 38.992C298.094 38.672 297.778 38.248 297.61 37.72H298.606C298.862 38.344 299.446 38.656 300.358 38.656C301.054 38.656 301.558 38.496 301.87 38.176C302.182 37.856 302.338 37.384 302.338 36.76V35.932C301.85 36.644 301.134 37 300.19 37C299.326 37 298.622 36.704 298.078 36.112C297.55 35.536 297.286 34.816 297.286 33.952C297.286 33.088 297.55 32.368 298.078 31.792C298.622 31.2 299.346 30.904 300.25 30.904C301.162 30.904 301.858 31.256 302.338 31.96ZM300.31 36.184C300.638 36.184 300.93 36.128 301.186 36.016C301.442 35.896 301.662 35.736 301.846 35.536C302.206 35.12 302.386 34.592 302.386 33.952C302.386 33.312 302.206 32.784 301.846 32.368C301.454 31.936 300.942 31.72 300.31 31.72C299.662 31.72 299.142 31.936 298.75 32.368C298.374 32.792 298.186 33.32 298.186 33.952C298.186 34.584 298.374 35.112 298.75 35.536C299.142 35.968 299.662 36.184 300.31 36.184Z" fill="#20B5E4"/>
<path d="M274.713 17.904V18.804H274.605C273.957 18.804 273.429 19.064 273.021 19.584C272.637 20.08 272.445 20.672 272.445 21.36V24H271.545V18H272.445V19.476C272.637 18.852 273.053 18.392 273.693 18.096C273.957 17.968 274.277 17.904 274.653 17.904H274.713ZM278.205 23.28C279.013 23.28 279.593 22.944 279.945 22.272H280.929C280.721 22.816 280.389 23.256 279.933 23.592C279.485 23.928 278.905 24.096 278.193 24.096C277.289 24.096 276.553 23.796 275.985 23.196C275.433 22.612 275.157 21.88 275.157 21C275.157 20.112 275.421 19.38 275.949 18.804C276.509 18.204 277.237 17.904 278.133 17.904C279.029 17.904 279.757 18.204 280.317 18.804C280.845 19.38 281.109 20.112 281.109 21V21.36H276.081C276.145 21.912 276.365 22.368 276.741 22.728C277.125 23.096 277.613 23.28 278.205 23.28ZM278.133 18.72C277.581 18.72 277.117 18.892 276.741 19.236C276.389 19.564 276.173 19.992 276.093 20.52H280.173C280.093 19.992 279.877 19.564 279.525 19.236C279.149 18.892 278.685 18.72 278.133 18.72ZM282.786 24V18.792H281.562V18H282.786V15.852H283.686V18H285.066V18.792H283.686V24H282.786ZM290.385 24V23.064C290.169 23.352 289.905 23.596 289.593 23.796C289.281 23.996 288.925 24.096 288.525 24.096C288.125 24.096 287.781 24.04 287.493 23.928C287.205 23.816 286.953 23.648 286.737 23.424C286.241 22.936 285.993 22.292 285.993 21.492V18H286.893V21.468C286.893 22.02 287.049 22.46 287.361 22.788C287.673 23.116 288.077 23.28 288.573 23.28C289.077 23.28 289.505 23.112 289.857 22.776C290.209 22.432 290.385 21.992 290.385 21.456V18H291.285V24H290.385ZM296.017 17.904V18.804H295.909C295.261 18.804 294.733 19.064 294.325 19.584C293.941 20.08 293.749 20.672 293.749 21.36V24H292.849V18H293.749V19.476C293.941 18.852 294.357 18.392 294.997 18.096C295.261 17.968 295.581 17.904 295.957 17.904H296.017ZM297.886 18V18.936C298.102 18.648 298.366 18.404 298.678 18.204C298.99 18.004 299.346 17.904 299.746 17.904C300.146 17.904 300.49 17.96 300.778 18.072C301.066 18.184 301.318 18.352 301.534 18.576C302.03 19.064 302.278 19.708 302.278 20.508V24H301.378V20.532C301.378 19.98 301.222 19.54 300.91 19.212C300.598 18.884 300.194 18.72 299.698 18.72C299.194 18.72 298.766 18.888 298.414 19.224C298.062 19.568 297.886 20.008 297.886 20.544V24H296.986V18H297.886Z" fill="#2FD32B"/>
</svg>
