<svg width="200" height="130" viewBox="0 0 200 130" fill="none" xmlns="http://www.w3.org/2000/svg">
<rect x="13.25" y="53.25" width="71.5" height="17.5" rx="8.75" fill="#9F7AEA" stroke="black" stroke-width="0.5"/>
<path d="M25.6 60.53C25.6 60.3167 25.5733 60.1133 25.52 59.92C25.4733 59.72 25.3933 59.5467 25.28 59.4C25.1667 59.2467 25.02 59.1267 24.84 59.04C24.66 58.9467 24.44 58.9 24.18 58.9C23.6667 58.9 23.2767 59.13 23.01 59.59C22.7433 60.05 22.61 60.71 22.61 61.57C22.61 62.4233 22.7533 63.0767 23.04 63.53C23.3267 63.9767 23.75 64.2 24.31 64.2C24.87 64.2 25.4533 63.9467 26.06 63.44C26.3333 63.62 26.51 63.85 26.59 64.13C26.4433 64.2767 26.2733 64.41 26.08 64.53C25.8933 64.65 25.6933 64.7567 25.48 64.85C25.2733 64.9367 25.0567 65.0033 24.83 65.05C24.61 65.1033 24.3933 65.13 24.18 65.13C23.6667 65.13 23.2367 65.0333 22.89 64.84C22.5433 64.64 22.27 64.38 22.07 64.06C21.8767 63.7333 21.73 63.36 21.63 62.94C21.5367 62.5133 21.49 62.0733 21.49 61.62C21.49 61.02 21.56 60.4967 21.7 60.05C21.84 59.6033 22.03 59.2333 22.27 58.94C22.5167 58.64 22.8033 58.4167 23.13 58.27C23.4567 58.1167 23.8033 58.04 24.17 58.04C24.55 58.04 24.89 58.0933 25.19 58.2C25.4967 58.3067 25.7567 58.45 25.97 58.63C26.19 58.81 26.3567 59.0167 26.47 59.25C26.5833 59.4833 26.64 59.73 26.64 59.99C26.64 60.39 26.44 60.59 26.04 60.59C25.9133 60.59 25.7667 60.57 25.6 60.53ZM29.2052 64.23H29.5752C29.6352 64.3967 29.6652 64.5433 29.6652 64.67C29.6652 64.7967 29.6552 64.8967 29.6352 64.97C29.3685 65.0167 29.0852 65.04 28.7852 65.04C28.1252 65.04 27.7952 64.6967 27.7952 64.01V57.71L27.8652 57.65H28.2552C28.4618 57.65 28.6052 57.7033 28.6852 57.81C28.7718 57.91 28.8152 58.0767 28.8152 58.31V63.78C28.8152 64.08 28.9452 64.23 29.2052 64.23ZM31.9246 60.92V65C31.7979 65.0267 31.6246 65.04 31.4046 65.04C31.1913 65.04 31.0213 65.0267 30.8946 65V61.34C30.8946 61.1533 30.8613 61.02 30.7946 60.94C30.7279 60.86 30.6146 60.82 30.4546 60.82H30.3446C30.3113 60.6733 30.2946 60.55 30.2946 60.45C30.2946 60.35 30.3113 60.2233 30.3446 60.07C30.5646 60.0433 30.7746 60.03 30.9746 60.03H31.1146C31.3679 60.03 31.5646 60.11 31.7046 60.27C31.8513 60.43 31.9246 60.6467 31.9246 60.92ZM30.6746 59.13C30.6146 59.01 30.5846 58.8633 30.5846 58.69C30.5846 58.4167 30.6346 58.2567 30.7346 58.21C30.8346 58.1567 31.0013 58.1267 31.2346 58.12C31.5013 58.1267 31.6713 58.16 31.7446 58.22C31.8179 58.28 31.8579 58.4367 31.8646 58.69C31.8579 58.93 31.8179 59.0833 31.7446 59.15C31.6713 59.2167 31.5013 59.2533 31.2346 59.26C30.9746 59.26 30.7879 59.2167 30.6746 59.13ZM36.0795 61.97V61.86C36.0795 61.1067 35.7861 60.73 35.1995 60.73C34.8795 60.73 34.6328 60.8833 34.4595 61.19C34.2861 61.4967 34.1995 61.9533 34.1995 62.56C34.1995 63.7067 34.5761 64.28 35.3295 64.28C35.7028 64.28 36.1061 64.1133 36.5395 63.78C36.6328 63.8333 36.7228 63.92 36.8095 64.04C36.8961 64.16 36.9528 64.2767 36.9795 64.39C36.4861 64.8833 35.8895 65.13 35.1895 65.13C34.8361 65.13 34.5295 65.0667 34.2695 64.94C34.0161 64.8067 33.8028 64.6233 33.6295 64.39C33.4628 64.1567 33.3361 63.8767 33.2495 63.55C33.1695 63.2233 33.1295 62.8633 33.1295 62.47C33.1295 62.0633 33.1861 61.7033 33.2995 61.39C33.4128 61.07 33.5628 60.8033 33.7495 60.59C33.9428 60.3767 34.1628 60.2133 34.4095 60.1C34.6628 59.9867 34.9295 59.93 35.2095 59.93C35.4961 59.93 35.7495 59.9733 35.9695 60.06C36.1961 60.1467 36.3861 60.26 36.5395 60.4C36.6995 60.54 36.8195 60.7033 36.8995 60.89C36.9861 61.07 37.0295 61.2533 37.0295 61.44C37.0295 61.82 36.8561 62.01 36.5095 62.01C36.3361 62.01 36.1928 61.9967 36.0795 61.97ZM41.4265 63.14L41.7665 63.97C41.9198 64.3767 42.0798 64.6367 42.2465 64.75C42.0598 64.9633 41.8298 65.07 41.5565 65.07C41.3832 65.07 41.2498 65.0267 41.1565 64.94C41.0632 64.8467 40.9765 64.6967 40.8965 64.49L40.4965 63.51C40.3898 63.25 40.2765 63.0767 40.1565 62.99C40.0432 62.8967 39.9065 62.85 39.7465 62.85C39.5865 62.85 39.3998 62.8567 39.1865 62.87V65C39.0598 65.0267 38.8932 65.04 38.6865 65.04C38.4798 65.04 38.3098 65.0267 38.1765 65V57.71L38.2365 57.65H38.6365C38.8432 57.65 38.9865 57.7 39.0665 57.8C39.1465 57.9 39.1865 58.07 39.1865 58.31V62.01L39.5265 61.99C39.6332 61.99 39.7132 61.9433 39.7665 61.85L40.6465 60.47C40.8132 60.1767 41.0265 60.03 41.2865 60.03C41.5465 60.03 41.7398 60.0333 41.8665 60.04L41.9265 60.12L40.8365 61.85C40.7365 62.01 40.6265 62.14 40.5065 62.24C40.9198 62.3467 41.2265 62.6467 41.4265 63.14ZM47.016 60.53C47.016 60.3167 46.9893 60.1133 46.936 59.92C46.8893 59.72 46.8093 59.5467 46.696 59.4C46.5827 59.2467 46.436 59.1267 46.256 59.04C46.076 58.9467 45.856 58.9 45.596 58.9C45.0827 58.9 44.6927 59.13 44.426 59.59C44.1593 60.05 44.026 60.71 44.026 61.57C44.026 62.4233 44.1693 63.0767 44.456 63.53C44.7427 63.9767 45.166 64.2 45.726 64.2C46.286 64.2 46.8693 63.9467 47.476 63.44C47.7493 63.62 47.926 63.85 48.006 64.13C47.8593 64.2767 47.6893 64.41 47.496 64.53C47.3093 64.65 47.1093 64.7567 46.896 64.85C46.6893 64.9367 46.4727 65.0033 46.246 65.05C46.026 65.1033 45.8093 65.13 45.596 65.13C45.0827 65.13 44.6527 65.0333 44.306 64.84C43.9593 64.64 43.686 64.38 43.486 64.06C43.2927 63.7333 43.146 63.36 43.046 62.94C42.9527 62.5133 42.906 62.0733 42.906 61.62C42.906 61.02 42.976 60.4967 43.116 60.05C43.256 59.6033 43.446 59.2333 43.686 58.94C43.9327 58.64 44.2193 58.4167 44.546 58.27C44.8727 58.1167 45.2193 58.04 45.586 58.04C45.966 58.04 46.306 58.0933 46.606 58.2C46.9127 58.3067 47.1727 58.45 47.386 58.63C47.606 58.81 47.7727 59.0167 47.886 59.25C47.9993 59.4833 48.056 59.73 48.056 59.99C48.056 60.39 47.856 60.59 47.456 60.59C47.3293 60.59 47.1827 60.57 47.016 60.53ZM52.4328 64.58C52.0661 64.9467 51.5828 65.13 50.9828 65.13C50.6361 65.13 50.3295 65.07 50.0628 64.95C49.7961 64.8233 49.5695 64.6467 49.3828 64.42C49.2028 64.1867 49.0628 63.9133 48.9628 63.6C48.8695 63.28 48.8228 62.9233 48.8228 62.53C48.8228 62.1433 48.8695 61.79 48.9628 61.47C49.0628 61.15 49.2028 60.8767 49.3828 60.65C49.5695 60.4167 49.7961 60.24 50.0628 60.12C50.3295 59.9933 50.6361 59.93 50.9828 59.93C51.3295 59.93 51.6361 59.9933 51.9028 60.12C52.1695 60.24 52.3928 60.4167 52.5728 60.65C52.7595 60.8767 52.8995 61.15 52.9928 61.47C53.0928 61.79 53.1428 62.1433 53.1428 62.53C53.1428 63.4233 52.9061 64.1067 52.4328 64.58ZM50.9828 60.72C50.2561 60.72 49.8928 61.3233 49.8928 62.53C49.8928 63.7367 50.2561 64.34 50.9828 64.34C51.7161 64.34 52.0828 63.7367 52.0828 62.53C52.0828 61.3233 51.7161 60.72 50.9828 60.72ZM54.3181 63.45V61.12C54.3181 60.72 54.2615 60.42 54.1481 60.22C54.3148 60.0733 54.5315 60 54.7981 60C55.1648 60 55.3481 60.2167 55.3481 60.65V63.2C55.3481 63.5467 55.3915 63.7933 55.4781 63.94C55.5648 64.0867 55.7181 64.16 55.9381 64.16C56.1581 64.16 56.3815 64.1067 56.6081 64C56.8348 63.8867 57.0381 63.7367 57.2181 63.55V60.06C57.4048 60.0333 57.5748 60.02 57.7281 60.02C57.8815 60.02 58.0581 60.0333 58.2581 60.06V63.6C58.2581 64.0667 58.3515 64.3833 58.5381 64.55C58.4648 64.79 58.3348 64.9633 58.1481 65.07C57.7281 64.9967 57.4481 64.7567 57.3081 64.35C56.7881 64.8433 56.2315 65.09 55.6381 65.09C55.1981 65.09 54.8681 64.94 54.6481 64.64C54.4281 64.34 54.3181 63.9433 54.3181 63.45ZM63.7669 61.61V63.94C63.7669 64.3333 63.8235 64.6367 63.9369 64.85C63.7635 64.9967 63.5602 65.07 63.3269 65.07C63.1002 65.07 62.9435 65.0167 62.8569 64.91C62.7769 64.7967 62.7369 64.63 62.7369 64.41V61.87C62.7369 61.5233 62.6902 61.2767 62.5969 61.13C62.5102 60.9833 62.3569 60.91 62.1369 60.91C61.9169 60.91 61.6902 60.9667 61.4569 61.08C61.2302 61.1867 61.0302 61.3367 60.8569 61.53V65C60.7435 65.0267 60.5735 65.04 60.3469 65.04C60.2402 65.04 60.1435 65.0367 60.0569 65.03C59.9702 65.0233 59.8935 65.0133 59.8269 65V60.08L59.8869 60.02H60.2769C60.6369 60.02 60.8269 60.2267 60.8469 60.64C61.3335 60.1933 61.8635 59.97 62.4369 59.97C62.8835 59.97 63.2169 60.12 63.4369 60.42C63.6569 60.7133 63.7669 61.11 63.7669 61.61ZM67.7159 60.05C67.7492 60.1633 67.7659 60.2933 67.7659 60.44C67.7659 60.5867 67.7492 60.7133 67.7159 60.82L66.4859 60.8V63.79C66.4859 64.0833 66.6225 64.23 66.8959 64.23H67.5859C67.6392 64.3767 67.6659 64.5267 67.6659 64.68C67.6659 64.8267 67.6592 64.9233 67.6459 64.97C67.2592 65.0167 66.8859 65.04 66.5259 65.04C65.8259 65.04 65.4759 64.6967 65.4759 64.01V60.81L64.7359 60.82C64.7092 60.7067 64.6959 60.5833 64.6959 60.45C64.6959 60.31 64.7092 60.1767 64.7359 60.05L65.4759 60.07V59.19C65.4759 58.95 65.5159 58.78 65.5959 58.68C65.6759 58.58 65.8192 58.53 66.0259 58.53H66.4159L66.4859 58.6V60.08L67.7159 60.05ZM72.3541 62.86H69.4141C69.4341 63.32 69.5307 63.6733 69.7041 63.92C69.8841 64.1667 70.1841 64.29 70.6041 64.29C70.8041 64.29 71.0174 64.26 71.2441 64.2C71.4774 64.14 71.7174 64.0433 71.9641 63.91C72.1307 64.0633 72.2407 64.2833 72.2941 64.57C71.7607 64.9433 71.1341 65.13 70.4141 65.13C70.0341 65.13 69.7141 65.0633 69.4541 64.93C69.1941 64.7967 68.9807 64.6133 68.8141 64.38C68.6541 64.1467 68.5374 63.87 68.4641 63.55C68.3907 63.2233 68.3541 62.8733 68.3541 62.5C68.3541 62.1333 68.4007 61.7933 68.4941 61.48C68.5874 61.16 68.7207 60.8867 68.8941 60.66C69.0674 60.4333 69.2807 60.2567 69.5341 60.13C69.7941 59.9967 70.0841 59.93 70.4041 59.93C70.7241 59.93 71.0074 59.9833 71.2541 60.09C71.5074 60.1967 71.7207 60.3467 71.8941 60.54C72.0674 60.7267 72.1974 60.9533 72.2841 61.22C72.3774 61.48 72.4241 61.7633 72.4241 62.07C72.4241 62.2033 72.4174 62.3367 72.4041 62.47C72.3974 62.5967 72.3807 62.7267 72.3541 62.86ZM70.4341 60.7C69.8007 60.7 69.4607 61.17 69.4141 62.11H71.4341V61.98C71.4341 61.6 71.3507 61.2933 71.1841 61.06C71.0241 60.82 70.7741 60.7 70.4341 60.7ZM73.4141 60.54C73.4807 60.2933 73.6074 60.11 73.7941 59.99C74.2541 60.09 74.5574 60.3867 74.7041 60.88C74.9707 60.2867 75.4074 59.99 76.0141 59.99C76.1741 59.99 76.3507 60.01 76.5441 60.05C76.5441 60.4367 76.4607 60.7633 76.2941 61.03C76.2341 61.01 76.0974 60.9933 75.8841 60.98C75.4307 60.98 75.0741 61.2333 74.8141 61.74V65C74.6874 65.0267 74.5141 65.04 74.2941 65.04C74.0807 65.04 73.9107 65.0267 73.7841 65V61.57C73.7841 61.1167 73.6607 60.7733 73.4141 60.54Z" fill="#E8EDF3"/>
<rect x="13.25" y="100.25" width="71.5" height="17.5" rx="8.75" fill="#9F7AEA" stroke="black" stroke-width="0.5"/>
<path d="M30.54 108.66L34.23 106.64C34.5167 106.813 34.6767 107.083 34.71 107.45L32.34 108.7L31.6 109.04V109.1L32.34 109.44L34.71 110.69C34.6967 110.857 34.6433 111.017 34.55 111.17C34.4567 111.317 34.35 111.43 34.23 111.51L30.54 109.49C30.4533 109.177 30.4533 108.9 30.54 108.66ZM36.0827 111.75V104.71L36.1427 104.65H36.5327C36.7394 104.65 36.8827 104.703 36.9627 104.81C37.0494 104.91 37.0927 105.077 37.0927 105.31V107.49C37.4927 107.15 37.9527 106.98 38.4727 106.98C39.0061 106.98 39.4161 107.21 39.7027 107.67C39.9961 108.13 40.1427 108.77 40.1427 109.59C40.1427 109.977 40.0861 110.323 39.9727 110.63C39.8594 110.937 39.7027 111.2 39.5027 111.42C39.3027 111.633 39.0661 111.797 38.7927 111.91C38.5261 112.023 38.2361 112.08 37.9227 112.08C37.2827 112.08 36.6694 111.97 36.0827 111.75ZM38.1827 107.84C37.7827 107.84 37.4194 108.03 37.0927 108.41V111.19C37.3394 111.27 37.6261 111.31 37.9527 111.31C38.2861 111.31 38.5594 111.153 38.7727 110.84C38.9861 110.527 39.0927 110.083 39.0927 109.51C39.0927 108.93 39.0094 108.507 38.8427 108.24C38.6827 107.973 38.4627 107.84 38.1827 107.84ZM41.3259 110.45V108.12C41.3259 107.72 41.2693 107.42 41.1559 107.22C41.3226 107.073 41.5393 107 41.8059 107C42.1726 107 42.3559 107.217 42.3559 107.65V110.2C42.3559 110.547 42.3993 110.793 42.4859 110.94C42.5726 111.087 42.7259 111.16 42.9459 111.16C43.1659 111.16 43.3893 111.107 43.6159 111C43.8426 110.887 44.0459 110.737 44.2259 110.55V107.06C44.4126 107.033 44.5826 107.02 44.7359 107.02C44.8893 107.02 45.0659 107.033 45.2659 107.06V110.6C45.2659 111.067 45.3593 111.383 45.5459 111.55C45.4726 111.79 45.3426 111.963 45.1559 112.07C44.7359 111.997 44.4559 111.757 44.3159 111.35C43.7959 111.843 43.2393 112.09 42.6459 112.09C42.2059 112.09 41.8759 111.94 41.6559 111.64C41.4359 111.34 41.3259 110.943 41.3259 110.45ZM49.2647 107.05C49.298 107.163 49.3147 107.293 49.3147 107.44C49.3147 107.587 49.298 107.713 49.2647 107.82L48.0347 107.8V110.79C48.0347 111.083 48.1714 111.23 48.4447 111.23H49.1347C49.188 111.377 49.2147 111.527 49.2147 111.68C49.2147 111.827 49.208 111.923 49.1947 111.97C48.808 112.017 48.4347 112.04 48.0747 112.04C47.3747 112.04 47.0247 111.697 47.0247 111.01V107.81L46.2847 107.82C46.258 107.707 46.2447 107.583 46.2447 107.45C46.2447 107.31 46.258 107.177 46.2847 107.05L47.0247 107.07V106.19C47.0247 105.95 47.0647 105.78 47.1447 105.68C47.2247 105.58 47.368 105.53 47.5747 105.53H47.9647L48.0347 105.6V107.08L49.2647 107.05ZM52.7608 107.05C52.7941 107.163 52.8108 107.293 52.8108 107.44C52.8108 107.587 52.7941 107.713 52.7608 107.82L51.5308 107.8V110.79C51.5308 111.083 51.6674 111.23 51.9408 111.23H52.6308C52.6841 111.377 52.7108 111.527 52.7108 111.68C52.7108 111.827 52.7041 111.923 52.6908 111.97C52.3041 112.017 51.9308 112.04 51.5708 112.04C50.8708 112.04 50.5208 111.697 50.5208 111.01V107.81L49.7808 107.82C49.7541 107.707 49.7408 107.583 49.7408 107.45C49.7408 107.31 49.7541 107.177 49.7808 107.05L50.5208 107.07V106.19C50.5208 105.95 50.5608 105.78 50.6408 105.68C50.7208 105.58 50.8641 105.53 51.0708 105.53H51.4608L51.5308 105.6V107.08L52.7608 107.05ZM57.009 111.58C56.6423 111.947 56.159 112.13 55.559 112.13C55.2123 112.13 54.9057 112.07 54.639 111.95C54.3723 111.823 54.1457 111.647 53.959 111.42C53.779 111.187 53.639 110.913 53.539 110.6C53.4457 110.28 53.399 109.923 53.399 109.53C53.399 109.143 53.4457 108.79 53.539 108.47C53.639 108.15 53.779 107.877 53.959 107.65C54.1457 107.417 54.3723 107.24 54.639 107.12C54.9057 106.993 55.2123 106.93 55.559 106.93C55.9057 106.93 56.2123 106.993 56.479 107.12C56.7457 107.24 56.969 107.417 57.149 107.65C57.3357 107.877 57.4757 108.15 57.569 108.47C57.669 108.79 57.719 109.143 57.719 109.53C57.719 110.423 57.4823 111.107 57.009 111.58ZM55.559 107.72C54.8323 107.72 54.469 108.323 54.469 109.53C54.469 110.737 54.8323 111.34 55.559 111.34C56.2923 111.34 56.659 110.737 56.659 109.53C56.659 108.323 56.2923 107.72 55.559 107.72ZM62.8743 108.61V110.94C62.8743 111.333 62.931 111.637 63.0443 111.85C62.871 111.997 62.6676 112.07 62.4343 112.07C62.2076 112.07 62.051 112.017 61.9643 111.91C61.8843 111.797 61.8443 111.63 61.8443 111.41V108.87C61.8443 108.523 61.7976 108.277 61.7043 108.13C61.6176 107.983 61.4643 107.91 61.2443 107.91C61.0243 107.91 60.7976 107.967 60.5643 108.08C60.3376 108.187 60.1376 108.337 59.9643 108.53V112C59.851 112.027 59.681 112.04 59.4543 112.04C59.3476 112.04 59.251 112.037 59.1643 112.03C59.0776 112.023 59.001 112.013 58.9343 112V107.08L58.9943 107.02H59.3843C59.7443 107.02 59.9343 107.227 59.9543 107.64C60.441 107.193 60.971 106.97 61.5443 106.97C61.991 106.97 62.3243 107.12 62.5443 107.42C62.7643 107.713 62.8743 108.11 62.8743 108.61ZM68.3733 109.48L64.6833 111.5C64.3966 111.327 64.2366 111.053 64.2033 110.68L66.5733 109.44C66.6933 109.373 66.9399 109.26 67.3133 109.1V109.03C66.9399 108.87 66.6933 108.757 66.5733 108.69L64.2033 107.44C64.2166 107.273 64.2699 107.117 64.3633 106.97C64.4566 106.817 64.5633 106.7 64.6833 106.62L68.3733 108.65C68.4599 108.957 68.4599 109.233 68.3733 109.48Z" fill="#E8EDF3"/>
<rect x="114.25" y="100.25" width="71.5" height="17.5" rx="8.75" fill="#9F7AEA" stroke="black" stroke-width="0.5"/>
<path d="M133.54 108.66L137.23 106.64C137.517 106.813 137.677 107.083 137.71 107.45L135.34 108.7L134.6 109.04V109.1L135.34 109.44L137.71 110.69C137.697 110.857 137.643 111.017 137.55 111.17C137.457 111.317 137.35 111.43 137.23 111.51L133.54 109.49C133.453 109.177 133.453 108.9 133.54 108.66ZM138.613 111.63C138.619 111.517 138.656 111.39 138.723 111.25C138.789 111.103 138.866 110.99 138.953 110.91C139.486 111.203 139.919 111.35 140.253 111.35C140.593 111.35 140.843 111.293 141.003 111.18C141.169 111.067 141.253 110.917 141.253 110.73C141.253 110.437 141.043 110.21 140.623 110.05L140.063 109.84C139.216 109.52 138.793 109.043 138.793 108.41C138.793 107.95 138.956 107.59 139.283 107.33C139.616 107.063 140.049 106.93 140.583 106.93C141.123 106.93 141.659 107.05 142.193 107.29C142.193 107.423 142.163 107.563 142.103 107.71C142.049 107.857 141.976 107.97 141.883 108.05C141.409 107.83 140.966 107.72 140.553 107.72C140.333 107.72 140.156 107.773 140.023 107.88C139.896 107.987 139.833 108.12 139.833 108.28C139.833 108.44 139.879 108.563 139.973 108.65C140.073 108.737 140.233 108.823 140.453 108.91L141.053 109.14C141.899 109.467 142.323 109.967 142.323 110.64C142.323 111.1 142.146 111.463 141.793 111.73C141.439 111.997 140.959 112.13 140.353 112.13C139.746 112.13 139.166 111.963 138.613 111.63ZM145.627 112.09C145.254 112.09 144.874 111.98 144.488 111.76V113.49C144.488 113.723 144.444 113.89 144.358 113.99C144.278 114.097 144.134 114.15 143.928 114.15H143.528L143.468 114.09V107.08L143.528 107.02H143.848C144.181 107.02 144.384 107.19 144.458 107.53C144.844 107.13 145.308 106.93 145.848 106.93C146.114 106.93 146.354 106.99 146.568 107.11C146.781 107.23 146.958 107.403 147.098 107.63C147.244 107.857 147.354 108.13 147.428 108.45C147.508 108.763 147.548 109.12 147.548 109.52C147.548 109.92 147.498 110.28 147.398 110.6C147.298 110.92 147.158 111.19 146.978 111.41C146.804 111.63 146.601 111.8 146.368 111.92C146.134 112.033 145.888 112.09 145.627 112.09ZM145.588 107.8C145.154 107.8 144.788 108.017 144.488 108.45V110.9C144.661 111.013 144.828 111.103 144.988 111.17C145.154 111.23 145.311 111.26 145.458 111.26C145.771 111.26 146.021 111.107 146.208 110.8C146.401 110.493 146.498 110.057 146.498 109.49C146.498 108.91 146.411 108.483 146.238 108.21C146.064 107.937 145.848 107.8 145.588 107.8ZM152.6 111.54C152.52 111.78 152.39 111.957 152.21 112.07C151.817 111.997 151.55 111.79 151.41 111.45C150.937 111.903 150.45 112.13 149.95 112.13C149.697 112.13 149.474 112.09 149.28 112.01C149.094 111.93 148.934 111.823 148.8 111.69C148.674 111.55 148.577 111.393 148.51 111.22C148.45 111.04 148.42 110.853 148.42 110.66C148.42 110.113 148.594 109.7 148.94 109.42C149.294 109.14 149.76 109 150.34 109C150.507 109 150.67 109.007 150.83 109.02C150.99 109.027 151.147 109.043 151.3 109.07V108.68C151.3 108.087 151.027 107.79 150.48 107.79C150.1 107.79 149.577 107.917 148.91 108.17C148.717 108.003 148.617 107.753 148.61 107.42C149.29 107.113 149.98 106.96 150.68 106.96C151.2 106.96 151.604 107.1 151.89 107.38C152.177 107.653 152.32 108.07 152.32 108.63V110.68C152.32 111.093 152.414 111.38 152.6 111.54ZM150.12 111.31C150.547 111.31 150.94 111.11 151.3 110.71V109.76C151.167 109.747 151.027 109.737 150.88 109.73C150.734 109.723 150.58 109.72 150.42 109.72C150.114 109.72 149.874 109.797 149.7 109.95C149.534 110.097 149.45 110.293 149.45 110.54C149.45 110.78 149.51 110.97 149.63 111.11C149.75 111.243 149.914 111.31 150.12 111.31ZM157.779 108.61V110.94C157.779 111.333 157.835 111.637 157.949 111.85C157.775 111.997 157.572 112.07 157.339 112.07C157.112 112.07 156.955 112.017 156.869 111.91C156.789 111.797 156.749 111.63 156.749 111.41V108.87C156.749 108.523 156.702 108.277 156.609 108.13C156.522 107.983 156.369 107.91 156.149 107.91C155.929 107.91 155.702 107.967 155.469 108.08C155.242 108.187 155.042 108.337 154.869 108.53V112C154.755 112.027 154.585 112.04 154.359 112.04C154.252 112.04 154.155 112.037 154.069 112.03C153.982 112.023 153.905 112.013 153.839 112V107.08L153.899 107.02H154.289C154.649 107.02 154.839 107.227 154.859 107.64C155.345 107.193 155.875 106.97 156.449 106.97C156.895 106.97 157.229 107.12 157.449 107.42C157.669 107.713 157.779 108.11 157.779 108.61ZM163.278 109.48L159.588 111.5C159.301 111.327 159.141 111.053 159.108 110.68L161.478 109.44C161.598 109.373 161.844 109.26 162.218 109.1V109.03C161.844 108.87 161.598 108.757 161.478 108.69L159.108 107.44C159.121 107.273 159.174 107.117 159.268 106.97C159.361 106.817 159.468 106.7 159.588 106.62L163.278 108.65C163.364 108.957 163.364 109.233 163.278 109.48Z" fill="#E8EDF3"/>
<rect x="12.75" y="10.75" width="72.5" height="18.5" rx="9.25" fill="#9F7AEA" stroke="black" stroke-width="0.5"/>
<path d="M34.78 19.03L34.77 18.29V16.17C34.91 16.1433 35.0867 16.13 35.3 16.13C35.52 16.13 35.7 16.1433 35.84 16.17V23C35.6867 23.0267 35.5067 23.04 35.3 23.04C35.1 23.04 34.9233 23.0267 34.77 23V20.66L34.78 19.92L34.22 19.93H32.53L31.96 19.92L31.97 20.66V23C31.83 23.0267 31.65 23.04 31.43 23.04C31.2167 23.04 31.0433 23.0267 30.91 23V16.17C31.0433 16.1433 31.2167 16.13 31.43 16.13C31.65 16.13 31.83 16.1433 31.97 16.17V18.29L31.96 19.03L32.53 19.02H34.22L34.78 19.03ZM40.798 22.58C40.4314 22.9467 39.948 23.13 39.348 23.13C39.0014 23.13 38.6947 23.07 38.428 22.95C38.1614 22.8233 37.9347 22.6467 37.748 22.42C37.568 22.1867 37.428 21.9133 37.328 21.6C37.2347 21.28 37.188 20.9233 37.188 20.53C37.188 20.1433 37.2347 19.79 37.328 19.47C37.428 19.15 37.568 18.8767 37.748 18.65C37.9347 18.4167 38.1614 18.24 38.428 18.12C38.6947 17.9933 39.0014 17.93 39.348 17.93C39.6947 17.93 40.0014 17.9933 40.268 18.12C40.5347 18.24 40.758 18.4167 40.938 18.65C41.1247 18.8767 41.2647 19.15 41.358 19.47C41.458 19.79 41.508 20.1433 41.508 20.53C41.508 21.4233 41.2714 22.1067 40.798 22.58ZM39.348 18.72C38.6214 18.72 38.258 19.3233 38.258 20.53C38.258 21.7367 38.6214 22.34 39.348 22.34C40.0814 22.34 40.448 21.7367 40.448 20.53C40.448 19.3233 40.0814 18.72 39.348 18.72ZM42.2534 22.63C42.26 22.5167 42.2967 22.39 42.3634 22.25C42.43 22.1033 42.5067 21.99 42.5934 21.91C43.1267 22.2033 43.56 22.35 43.8934 22.35C44.2334 22.35 44.4834 22.2933 44.6434 22.18C44.81 22.0667 44.8934 21.9167 44.8934 21.73C44.8934 21.4367 44.6834 21.21 44.2634 21.05L43.7034 20.84C42.8567 20.52 42.4334 20.0433 42.4334 19.41C42.4334 18.95 42.5967 18.59 42.9234 18.33C43.2567 18.0633 43.69 17.93 44.2234 17.93C44.7634 17.93 45.3 18.05 45.8334 18.29C45.8334 18.4233 45.8034 18.5633 45.7434 18.71C45.69 18.8567 45.6167 18.97 45.5234 19.05C45.05 18.83 44.6067 18.72 44.1934 18.72C43.9734 18.72 43.7967 18.7733 43.6634 18.88C43.5367 18.9867 43.4734 19.12 43.4734 19.28C43.4734 19.44 43.52 19.5633 43.6134 19.65C43.7134 19.7367 43.8734 19.8233 44.0934 19.91L44.6934 20.14C45.54 20.4667 45.9634 20.9667 45.9634 21.64C45.9634 22.1 45.7867 22.4633 45.4334 22.73C45.08 22.9967 44.6 23.13 43.9934 23.13C43.3867 23.13 42.8067 22.9633 42.2534 22.63ZM49.5381 18.05C49.5715 18.1633 49.5881 18.2933 49.5881 18.44C49.5881 18.5867 49.5715 18.7133 49.5381 18.82L48.3081 18.8V21.79C48.3081 22.0833 48.4448 22.23 48.7181 22.23H49.4081C49.4615 22.3767 49.4881 22.5267 49.4881 22.68C49.4881 22.8267 49.4815 22.9233 49.4681 22.97C49.0815 23.0167 48.7081 23.04 48.3481 23.04C47.6481 23.04 47.2981 22.6967 47.2981 22.01V18.81L46.5581 18.82C46.5315 18.7067 46.5181 18.5833 46.5181 18.45C46.5181 18.31 46.5315 18.1767 46.5581 18.05L47.2981 18.07V17.19C47.2981 16.95 47.3381 16.78 47.4181 16.68C47.4981 16.58 47.6415 16.53 47.8481 16.53H48.2381L48.3081 16.6V18.08L49.5381 18.05ZM50.7942 16.16L52.9442 16.13C53.6509 16.13 54.2042 16.31 54.6042 16.67C55.0109 17.0233 55.2142 17.5267 55.2142 18.18C55.2142 18.6267 55.0942 19.0133 54.8542 19.34C54.6209 19.66 54.3142 19.88 53.9342 20C54.2476 20.1133 54.4842 20.3967 54.6442 20.85L55.0842 22.02C55.2109 22.3667 55.3609 22.6067 55.5342 22.74C55.3876 22.96 55.1476 23.07 54.8142 23.07C54.6276 23.07 54.4842 23.02 54.3842 22.92C54.2909 22.82 54.2009 22.6533 54.1142 22.42L53.6142 21.07C53.5142 20.8033 53.3909 20.6 53.2442 20.46C53.1042 20.32 52.8909 20.25 52.6042 20.25H51.7842V23C51.6442 23.0267 51.4676 23.04 51.2542 23.04C51.0409 23.04 50.8676 23.0267 50.7342 23V16.23L50.7942 16.16ZM51.7842 16.96V19.4C52.3042 19.3867 52.6742 19.38 52.8942 19.38C53.3409 19.38 53.6542 19.2667 53.8342 19.04C54.0209 18.8133 54.1142 18.5267 54.1142 18.18C54.1142 17.3733 53.7076 16.97 52.8942 16.97C52.3809 16.97 52.0109 16.9667 51.7842 16.96ZM59.675 22.58C59.3083 22.9467 58.825 23.13 58.225 23.13C57.8783 23.13 57.5717 23.07 57.305 22.95C57.0383 22.8233 56.8117 22.6467 56.625 22.42C56.445 22.1867 56.305 21.9133 56.205 21.6C56.1117 21.28 56.065 20.9233 56.065 20.53C56.065 20.1433 56.1117 19.79 56.205 19.47C56.305 19.15 56.445 18.8767 56.625 18.65C56.8117 18.4167 57.0383 18.24 57.305 18.12C57.5717 17.9933 57.8783 17.93 58.225 17.93C58.5717 17.93 58.8783 17.9933 59.145 18.12C59.4117 18.24 59.635 18.4167 59.815 18.65C60.0017 18.8767 60.1417 19.15 60.235 19.47C60.335 19.79 60.385 20.1433 60.385 20.53C60.385 21.4233 60.1483 22.1067 59.675 22.58ZM58.225 18.72C57.4983 18.72 57.135 19.3233 57.135 20.53C57.135 21.7367 57.4983 22.34 58.225 22.34C58.9583 22.34 59.325 21.7367 59.325 20.53C59.325 19.3233 58.9583 18.72 58.225 18.72ZM64.8703 22.58C64.5036 22.9467 64.0203 23.13 63.4203 23.13C63.0736 23.13 62.767 23.07 62.5003 22.95C62.2336 22.8233 62.007 22.6467 61.8203 22.42C61.6403 22.1867 61.5003 21.9133 61.4003 21.6C61.307 21.28 61.2603 20.9233 61.2603 20.53C61.2603 20.1433 61.307 19.79 61.4003 19.47C61.5003 19.15 61.6403 18.8767 61.8203 18.65C62.007 18.4167 62.2336 18.24 62.5003 18.12C62.767 17.9933 63.0736 17.93 63.4203 17.93C63.767 17.93 64.0736 17.9933 64.3403 18.12C64.607 18.24 64.8303 18.4167 65.0103 18.65C65.197 18.8767 65.337 19.15 65.4303 19.47C65.5303 19.79 65.5803 20.1433 65.5803 20.53C65.5803 21.4233 65.3436 22.1067 64.8703 22.58ZM63.4203 18.72C62.6936 18.72 62.3303 19.3233 62.3303 20.53C62.3303 21.7367 62.6936 22.34 63.4203 22.34C64.1536 22.34 64.5203 21.7367 64.5203 20.53C64.5203 19.3233 64.1536 18.72 63.4203 18.72ZM69.1377 18.05C69.1711 18.1633 69.1877 18.2933 69.1877 18.44C69.1877 18.5867 69.1711 18.7133 69.1377 18.82L67.9077 18.8V21.79C67.9077 22.0833 68.0444 22.23 68.3177 22.23H69.0077C69.0611 22.3767 69.0877 22.5267 69.0877 22.68C69.0877 22.8267 69.0811 22.9233 69.0677 22.97C68.6811 23.0167 68.3077 23.04 67.9477 23.04C67.2477 23.04 66.8977 22.6967 66.8977 22.01V18.81L66.1577 18.82C66.1311 18.7067 66.1177 18.5833 66.1177 18.45C66.1177 18.31 66.1311 18.1767 66.1577 18.05L66.8977 18.07V17.19C66.8977 16.95 66.9377 16.78 67.0177 16.68C67.0977 16.58 67.2411 16.53 67.4477 16.53H67.8377L67.9077 16.6V18.08L69.1377 18.05Z" fill="#E8EDF3"/>
<path d="M57.6464 49.3536C57.8417 49.5488 58.1583 49.5488 58.3536 49.3536L61.5355 46.1716C61.7308 45.9763 61.7308 45.6597 61.5355 45.4645C61.3403 45.2692 61.0237 45.2692 60.8284 45.4645L58 48.2929L55.1716 45.4645C54.9763 45.2692 54.6597 45.2692 54.4645 45.4645C54.2692 45.6597 54.2692 45.9763 54.4645 46.1716L57.6464 49.3536ZM57.5 32V49H58.5V32H57.5Z" fill="#F49F20"/>
<path d="M57.6464 94.3536C57.8417 94.5488 58.1583 94.5488 58.3536 94.3536L61.5355 91.1716C61.7308 90.9763 61.7308 90.6597 61.5355 90.4645C61.3403 90.2692 61.0237 90.2692 60.8284 90.4645L58 93.2929L55.1716 90.4645C54.9763 90.2692 54.6597 90.2692 54.4645 90.4645C54.2692 90.6597 54.2692 90.9763 54.4645 91.1716L57.6464 94.3536ZM57.5 77V94H58.5V77H57.5Z" fill="#F49F20"/>
<path d="M108.354 109.354C108.549 109.158 108.549 108.842 108.354 108.646L105.172 105.464C104.976 105.269 104.66 105.269 104.464 105.464C104.269 105.66 104.269 105.976 104.464 106.172L107.293 109L104.464 111.828C104.269 112.024 104.269 112.34 104.464 112.536C104.66 112.731 104.976 112.731 105.172 112.536L108.354 109.354ZM91 109.5H108V108.5H91V109.5Z" fill="#20B5E4"/>
<path d="M40.3536 31.6464C40.1583 31.4512 39.8417 31.4512 39.6464 31.6464L36.4645 34.8284C36.2692 35.0237 36.2692 35.3403 36.4645 35.5355C36.6597 35.7308 36.9763 35.7308 37.1716 35.5355L40 32.7071L42.8284 35.5355C43.0237 35.7308 43.3403 35.7308 43.5355 35.5355C43.7308 35.3403 43.7308 35.0237 43.5355 34.8284L40.3536 31.6464ZM40.5 49V32H39.5V49H40.5Z" fill="#2FD32B"/>
<path d="M40.3536 76.6464C40.1583 76.4512 39.8417 76.4512 39.6464 76.6464L36.4645 79.8284C36.2692 80.0237 36.2692 80.3403 36.4645 80.5355C36.6597 80.7308 36.9763 80.7308 37.1716 80.5355L40 77.7071L42.8284 80.5355C43.0237 80.7308 43.3403 80.7308 43.5355 80.5355C43.7308 80.3403 43.7308 80.0237 43.5355 79.8284L40.3536 76.6464ZM40.5 94V77H39.5V94H40.5Z" fill="#2FD32B"/>
<path d="M95.8626 61.5192C95.5971 61.5951 95.4434 61.8718 95.5192 62.1374L96.7555 66.4642C96.8313 66.7297 97.1081 66.8835 97.3736 66.8076C97.6391 66.7318 97.7929 66.455 97.717 66.1895L96.6181 62.3434L100.464 61.2445C100.73 61.1687 100.883 60.8919 100.808 60.6264C100.732 60.3609 100.455 60.2071 100.189 60.283L95.8626 61.5192ZM150.243 91.5629L96.2428 61.5629L95.7572 62.4371L149.757 92.4371L150.243 91.5629Z" fill="#2FD32B"/>
<path d="M158.179 22.28C158.563 22.28 158.903 22.172 159.199 21.956C159.495 21.74 159.711 21.46 159.847 21.116H160.819C160.635 21.708 160.299 22.184 159.811 22.544C159.299 22.912 158.691 23.096 157.987 23.096C157.107 23.096 156.391 22.796 155.839 22.196C155.303 21.612 155.035 20.88 155.035 20C155.035 19.12 155.303 18.388 155.839 17.804C156.391 17.204 157.107 16.904 157.987 16.904C158.691 16.904 159.299 17.088 159.811 17.456C160.299 17.816 160.635 18.292 160.819 18.884H159.847C159.711 18.54 159.495 18.26 159.199 18.044C158.903 17.828 158.563 17.72 158.179 17.72C157.795 17.72 157.467 17.78 157.195 17.9C156.931 18.02 156.707 18.184 156.523 18.392C156.131 18.824 155.935 19.36 155.935 20C155.935 20.64 156.131 21.176 156.523 21.608C156.923 22.056 157.475 22.28 158.179 22.28ZM162.835 14.6V17.936C163.051 17.648 163.315 17.404 163.627 17.204C163.939 17.004 164.295 16.904 164.695 16.904C165.095 16.904 165.439 16.96 165.727 17.072C166.015 17.184 166.267 17.352 166.483 17.576C166.979 18.064 167.227 18.708 167.227 19.508V23H166.327V19.532C166.327 18.98 166.171 18.54 165.859 18.212C165.547 17.884 165.143 17.72 164.647 17.72C164.143 17.72 163.715 17.888 163.363 18.224C163.011 18.568 162.835 19.008 162.835 19.544V23H161.935V14.6H162.835ZM168.732 17H169.632V23H168.732V17ZM169.668 14.816V15.992H168.696V14.816H169.668ZM172.093 23H171.193V14.6H172.093V23ZM178.334 22.04C177.854 22.744 177.138 23.096 176.186 23.096C175.322 23.096 174.618 22.796 174.074 22.196C173.546 21.604 173.282 20.872 173.282 20C173.282 19.128 173.546 18.396 174.074 17.804C174.618 17.204 175.342 16.904 176.246 16.904C177.15 16.904 177.846 17.26 178.334 17.972V14.6H179.234V23H178.334V22.04ZM176.306 22.28C176.954 22.28 177.466 22.056 177.842 21.608C178.202 21.184 178.382 20.648 178.382 20C178.382 19.352 178.202 18.816 177.842 18.392C177.466 17.944 176.954 17.72 176.306 17.72C175.666 17.72 175.146 17.944 174.746 18.392C174.37 18.816 174.182 19.352 174.182 20C174.182 20.648 174.37 21.184 174.746 21.608C175.146 22.056 175.666 22.28 176.306 22.28Z" fill="#F49F20"/>
<path d="M151.092 43.608C151.012 42.984 150.508 42.672 149.58 42.672C148.66 42.672 148.2 42.96 148.2 43.536C148.2 43.776 148.296 43.96 148.488 44.088C148.688 44.208 148.936 44.308 149.232 44.388C149.528 44.468 149.848 44.544 150.192 44.616C150.544 44.68 150.868 44.776 151.164 44.904C151.46 45.024 151.704 45.192 151.896 45.408C152.096 45.624 152.196 45.92 152.196 46.296C152.196 46.88 151.976 47.328 151.536 47.64C151.096 47.944 150.5 48.096 149.748 48.096C148.948 48.096 148.312 47.896 147.84 47.496C147.408 47.144 147.176 46.684 147.144 46.116H148.08C148.136 46.668 148.448 47.04 149.016 47.232C149.224 47.296 149.428 47.328 149.628 47.328C149.836 47.328 150.028 47.316 150.204 47.292C150.38 47.268 150.552 47.224 150.72 47.16C151.104 47.008 151.296 46.748 151.296 46.38C151.296 46.132 151.196 45.944 150.996 45.816C150.804 45.68 150.56 45.572 150.264 45.492C149.968 45.404 149.644 45.328 149.292 45.264C148.948 45.192 148.628 45.096 148.332 44.976C148.036 44.856 147.788 44.692 147.588 44.484C147.396 44.276 147.3 43.988 147.3 43.62C147.3 43.076 147.496 42.656 147.888 42.36C148.288 42.056 148.876 41.904 149.652 41.904C150.388 41.904 150.968 42.08 151.392 42.432C151.744 42.728 151.948 43.12 152.004 43.608H151.092ZM153.353 42H154.253V48H153.353V42ZM154.289 39.816V40.992H153.317V39.816H154.289ZM156.714 42.972C157.202 42.26 157.918 41.904 158.862 41.904C159.726 41.904 160.426 42.204 160.962 42.804C161.498 43.396 161.766 44.128 161.766 45C161.766 45.872 161.498 46.604 160.962 47.196C160.426 47.796 159.702 48.096 158.79 48.096C157.886 48.096 157.194 47.744 156.714 47.04V48H155.814V39.6H156.714V42.972ZM158.742 47.28C159.382 47.28 159.902 47.056 160.302 46.608C160.678 46.184 160.866 45.648 160.866 45C160.866 44.352 160.678 43.816 160.302 43.392C159.902 42.944 159.382 42.72 158.742 42.72C158.094 42.72 157.582 42.944 157.206 43.392C156.846 43.816 156.666 44.352 156.666 45C156.666 45.648 156.846 46.184 157.206 46.608C157.582 47.056 158.094 47.28 158.742 47.28ZM163.839 48H162.939V39.6H163.839V48ZM165.4 42H166.3V48H165.4V42ZM166.336 39.816V40.992H165.364V39.816H166.336ZM168.761 42V42.936C168.977 42.648 169.241 42.404 169.553 42.204C169.865 42.004 170.221 41.904 170.621 41.904C171.021 41.904 171.365 41.96 171.653 42.072C171.941 42.184 172.193 42.352 172.409 42.576C172.905 43.064 173.153 43.708 173.153 44.508V48H172.253V44.532C172.253 43.98 172.097 43.54 171.785 43.212C171.473 42.884 171.069 42.72 170.573 42.72C170.069 42.72 169.641 42.888 169.289 43.224C168.937 43.568 168.761 44.008 168.761 44.544V48H167.861V42H168.761ZM179.338 42.96V42H180.238V47.82C180.238 48.684 179.99 49.34 179.494 49.788C179.006 50.244 178.346 50.472 177.514 50.472C176.682 50.472 176.03 50.312 175.558 49.992C175.094 49.672 174.778 49.248 174.61 48.72H175.606C175.862 49.344 176.446 49.656 177.358 49.656C178.054 49.656 178.558 49.496 178.87 49.176C179.182 48.856 179.338 48.384 179.338 47.76V46.932C178.85 47.644 178.134 48 177.19 48C176.326 48 175.622 47.704 175.078 47.112C174.55 46.536 174.286 45.816 174.286 44.952C174.286 44.088 174.55 43.368 175.078 42.792C175.622 42.2 176.346 41.904 177.25 41.904C178.162 41.904 178.858 42.256 179.338 42.96ZM177.31 47.184C177.638 47.184 177.93 47.128 178.186 47.016C178.442 46.896 178.662 46.736 178.846 46.536C179.206 46.12 179.386 45.592 179.386 44.952C179.386 44.312 179.206 43.784 178.846 43.368C178.454 42.936 177.942 42.72 177.31 42.72C176.662 42.72 176.142 42.936 175.75 43.368C175.374 43.792 175.186 44.32 175.186 44.952C175.186 45.584 175.374 46.112 175.75 46.536C176.142 46.968 176.662 47.184 177.31 47.184Z" fill="#20B5E4"/>
<path d="M151.713 28.904V29.804H151.605C150.957 29.804 150.429 30.064 150.021 30.584C149.637 31.08 149.445 31.672 149.445 32.36V35H148.545V29H149.445V30.476C149.637 29.852 150.053 29.392 150.693 29.096C150.957 28.968 151.277 28.904 151.653 28.904H151.713ZM155.205 34.28C156.013 34.28 156.593 33.944 156.945 33.272H157.929C157.721 33.816 157.389 34.256 156.933 34.592C156.485 34.928 155.905 35.096 155.193 35.096C154.289 35.096 153.553 34.796 152.985 34.196C152.433 33.612 152.157 32.88 152.157 32C152.157 31.112 152.421 30.38 152.949 29.804C153.509 29.204 154.237 28.904 155.133 28.904C156.029 28.904 156.757 29.204 157.317 29.804C157.845 30.38 158.109 31.112 158.109 32V32.36H153.081C153.145 32.912 153.365 33.368 153.741 33.728C154.125 34.096 154.613 34.28 155.205 34.28ZM155.133 29.72C154.581 29.72 154.117 29.892 153.741 30.236C153.389 30.564 153.173 30.992 153.093 31.52H157.173C157.093 30.992 156.877 30.564 156.525 30.236C156.149 29.892 155.685 29.72 155.133 29.72ZM159.786 35V29.792H158.562V29H159.786V26.852H160.686V29H162.066V29.792H160.686V35H159.786ZM167.385 35V34.064C167.169 34.352 166.905 34.596 166.593 34.796C166.281 34.996 165.925 35.096 165.525 35.096C165.125 35.096 164.781 35.04 164.493 34.928C164.205 34.816 163.953 34.648 163.737 34.424C163.241 33.936 162.993 33.292 162.993 32.492V29H163.893V32.468C163.893 33.02 164.049 33.46 164.361 33.788C164.673 34.116 165.077 34.28 165.573 34.28C166.077 34.28 166.505 34.112 166.857 33.776C167.209 33.432 167.385 32.992 167.385 32.456V29H168.285V35H167.385ZM173.017 28.904V29.804H172.909C172.261 29.804 171.733 30.064 171.325 30.584C170.941 31.08 170.749 31.672 170.749 32.36V35H169.849V29H170.749V30.476C170.941 29.852 171.357 29.392 171.997 29.096C172.261 28.968 172.581 28.904 172.957 28.904H173.017ZM174.886 29V29.936C175.102 29.648 175.366 29.404 175.678 29.204C175.99 29.004 176.346 28.904 176.746 28.904C177.146 28.904 177.49 28.96 177.778 29.072C178.066 29.184 178.318 29.352 178.534 29.576C179.03 30.064 179.278 30.708 179.278 31.508V35H178.378V31.532C178.378 30.98 178.222 30.54 177.91 30.212C177.598 29.884 177.194 29.72 176.698 29.72C176.194 29.72 175.766 29.888 175.414 30.224C175.062 30.568 174.886 31.008 174.886 31.544V35H173.986V29H174.886Z" fill="#2FD32B"/>
</svg>
